<svg width="49" height="27" viewBox="0 0 49 27" fill="none" xmlns="http://www.w3.org/2000/svg">
<path d="M33.4091 0H21.1591V9H0V20.25H4.45455C4.45455 22.0402 5.15852 23.7571 6.4116 25.023C7.66469 26.2888 9.36423 27 11.1364 27C12.9085 27 14.608 26.2888 15.8611 25.023C17.1142 23.7571 17.8182 22.0402 17.8182 20.25H31.1818C31.1818 22.0402 31.8858 23.7571 33.1389 25.023C34.392 26.2888 36.0915 27 37.8636 27C39.6358 27 41.3353 26.2888 42.5884 25.023C43.8415 23.7571 44.5455 22.0402 44.5455 20.25H49V13.5C49 11.0025 47.0177 9 44.5455 9H40.0909L33.4091 0ZM24.5 3.375H32.2955L36.6609 9H24.5V3.375ZM11.1364 16.875C12.0224 16.875 12.8722 17.2306 13.4987 17.8635C14.1253 18.4964 14.4773 19.3549 14.4773 20.25C14.4773 21.1451 14.1253 22.0035 13.4987 22.6365C12.8722 23.2694 12.0224 23.625 11.1364 23.625C10.2503 23.625 9.40053 23.2694 8.77398 22.6365C8.14744 22.0035 7.79545 21.1451 7.79545 20.25C7.79545 19.3549 8.14744 18.4964 8.77398 17.8635C9.40053 17.2306 10.2503 16.875 11.1364 16.875ZM37.8636 16.875C38.7497 16.875 39.5995 17.2306 40.226 17.8635C40.8526 18.4964 41.2045 19.3549 41.2045 20.25C41.2045 21.1451 40.8526 22.0035 40.226 22.6365C39.5995 23.2694 38.7497 23.625 37.8636 23.625C36.9776 23.625 36.1278 23.2694 35.5013 22.6365C34.8747 22.0035 34.5227 21.1451 34.5227 20.25C34.5227 19.3549 34.8747 18.4964 35.5013 17.8635C36.1278 17.2306 36.9776 16.875 37.8636 16.875Z" fill="#43467B"/>
</svg>
