<svg width="25" height="18" viewBox="0 0 25 18" fill="none" xmlns="http://www.w3.org/2000/svg">
<path d="M23.9411 6.2025L19.2386 5.47802L16.3729 0.796702C16.2234 0.553432 16.0141 0.352494 15.765 0.213033C15.5158 0.0735712 15.2351 0.000230996 14.9496 0H14.9373H14.9384L2.93013 0.0955603C2.58575 0.0985762 2.25074 0.208053 1.97104 0.408979C1.69133 0.609904 1.48064 0.892437 1.36784 1.21783L1.36451 1.23006L0 5.2769V14.5806H2.86457C3.32459 16.0407 4.66576 17.0808 6.25028 17.0808C7.83479 17.0808 9.17596 16.0407 9.62821 14.6062L9.63487 14.5806H14.9484C15.4085 16.0407 16.7496 17.0808 18.3341 17.0808C19.9187 17.0808 21.2598 16.0407 21.7121 14.6062L21.7187 14.5806H25V7.43811V7.43255C24.9999 7.13591 24.8938 6.84908 24.7008 6.62376C24.5079 6.39843 24.2408 6.24943 23.9477 6.20361L23.9411 6.2025ZM14.9529 1.66674L17.2497 5.41913L10.8338 5.41691V1.69896L14.9529 1.66674ZM2.94346 1.7623L9.16707 1.7123V5.4158L1.7123 5.41357L2.94346 1.7623ZM6.25028 15.414C5.87931 15.414 5.51668 15.304 5.20823 15.0979C4.89978 14.8918 4.65938 14.5989 4.51741 14.2562C4.37545 13.9134 4.33831 13.5363 4.41068 13.1725C4.48305 12.8086 4.66169 12.4744 4.924 12.2121C5.18631 11.9498 5.52052 11.7712 5.88436 11.6988C6.2482 11.6264 6.62533 11.6636 6.96805 11.8055C7.31078 11.9475 7.60372 12.1879 7.80981 12.4963C8.01591 12.8048 8.12592 13.1674 8.12592 13.5384C8.12533 14.0355 7.92768 14.512 7.5763 14.8636C7.22492 15.2152 6.74847 15.4131 6.25139 15.414H6.25028ZM18.3341 15.414C17.9632 15.414 17.6005 15.304 17.2921 15.0979C16.9837 14.8918 16.7432 14.5989 16.6013 14.2562C16.4593 13.9134 16.4222 13.5363 16.4946 13.1725C16.5669 12.8086 16.7456 12.4744 17.0079 12.2121C17.2702 11.9498 17.6044 11.7712 17.9682 11.6988C18.3321 11.6264 18.7092 11.6636 19.0519 11.8055C19.3947 11.9475 19.6876 12.1879 19.8937 12.4963C20.0998 12.8048 20.2098 13.1674 20.2098 13.5384C20.2092 14.0355 20.0116 14.512 19.6602 14.8636C19.3088 15.2152 18.8323 15.4131 18.3353 15.414H18.3341ZM23.3344 12.9139H21.8199C21.674 12.0976 21.2463 11.3583 20.6113 10.825C19.9763 10.2917 19.1743 9.99814 18.3451 9.9955C17.5159 9.99285 16.712 10.2813 16.0736 10.8106C15.4352 11.3398 15.0028 12.0763 14.8518 12.8917L14.8484 12.9139H9.73599C9.59014 12.0976 9.16245 11.3583 8.52746 10.825C7.89247 10.2917 7.09045 9.99814 6.26122 9.9955C5.43198 9.99285 4.62811 10.2813 3.98973 10.8106C3.35135 11.3398 2.91895 12.0763 2.7679 12.8917L2.76457 12.9139H1.66674V7.08143L18.882 7.10921L23.3344 7.79479V12.9139Z" fill="white"/>
</svg>
