<svg width="25" height="23" viewBox="0 0 25 23" fill="none" xmlns="http://www.w3.org/2000/svg">
<path d="M12.5 6.24953V12.4995H18.75V9.99953H15V6.24953H12.5Z" fill="white"/>
<path d="M24.115 6.87079C23.5511 5.53335 22.7326 4.31831 21.705 3.29329C20.1494 1.73775 18.1721 0.672173 16.0175 0.228295C14.522 -0.0760983 12.9805 -0.0760983 11.485 0.228295C9.32833 0.669338 7.34933 1.73579 5.79499 3.29454C4.76986 4.32065 3.95166 5.53436 3.385 6.86954C2.79888 8.2553 2.4979 9.74492 2.5 11.2495L2.50125 11.2808H0L3.75 16.2495L7.49999 11.2808H5.00125L5 11.2495C4.9964 9.50625 5.51682 7.80213 6.49374 6.35829C7.12389 5.42665 7.92618 4.62393 8.85749 3.99329C9.80492 3.35505 10.8676 2.90754 11.9862 2.67579C14.2594 2.20842 16.6251 2.66283 18.5634 3.93913C20.5016 5.21543 21.8537 7.20916 22.3225 9.48204C22.5583 10.6469 22.5583 11.8472 22.3225 13.012C22.0938 14.1316 21.646 15.1949 21.005 16.1408C20.6925 16.6045 20.3337 17.0408 19.9375 17.4358C19.1389 18.2333 18.1948 18.8703 17.1562 19.312C16.6273 19.5356 16.0775 19.7065 15.515 19.822C14.3505 20.0576 13.1507 20.0576 11.9862 19.822C10.8679 19.5927 9.80557 19.1455 8.85999 18.5058C8.39493 18.1915 7.96089 17.8337 7.56374 17.437L5.79624 19.2045C6.84015 20.2499 8.08003 21.079 9.44486 21.6444C10.8097 22.2098 12.2727 22.5004 13.75 22.4995C15.2538 22.4989 16.7424 22.1985 18.1287 21.6158C20.1383 20.7656 21.8575 19.3499 23.0775 17.5408C24.3331 15.6832 25.0027 13.4917 25 11.2495C25.0031 9.74522 24.7021 8.25581 24.115 6.87079Z" fill="white"/>
</svg>
