<svg width="65" height="65" viewBox="0 0 65 65" fill="none" xmlns="http://www.w3.org/2000/svg">
<path d="M32.5 0C14.5464 0 0 14.5254 0 32.4531C0 50.3809 14.5464 64.9062 32.5 64.9062C50.4536 64.9062 65 50.3809 65 32.4531C65 14.5254 50.4536 0 32.5 0ZM32.5 12.5625C38.8689 12.5625 44.0323 17.7184 44.0323 24.0781C44.0323 30.4379 38.8689 35.5938 32.5 35.5938C26.131 35.5938 20.9677 30.4379 20.9677 24.0781C20.9677 17.7184 26.131 12.5625 32.5 12.5625ZM32.5 57.5781C24.8075 57.5781 17.9143 54.0973 13.3014 48.6535C15.7651 44.0211 20.5877 40.8281 26.2097 40.8281C26.5242 40.8281 26.8387 40.8805 27.1401 40.9721C28.8438 41.5217 30.626 41.875 32.5 41.875C34.374 41.875 36.1694 41.5217 37.8599 40.9721C38.1613 40.8805 38.4758 40.8281 38.7903 40.8281C44.4123 40.8281 49.2349 44.0211 51.6986 48.6535C47.0857 54.0973 40.1925 57.5781 32.5 57.5781Z" fill="white"/>
</svg>
